<svg xmlns="http://www.w3.org/2000/svg" version="1.1" xmlns:xlink="http://www.w3.org/1999/xlink" xmlns:svgjs="http://svgjs.dev/svgjs" width="2000" height="1247" viewBox="0 0 2000 1247"><g transform="matrix(1,0,0,1,-1.2121212121212466,0.504858299595071)"><svg viewBox="0 0 396 247" data-background-color="#ffffff" preserveAspectRatio="xMidYMid meet" height="1247" width="2000" xmlns="http://www.w3.org/2000/svg" xmlns:xlink="http://www.w3.org/1999/xlink"><g id="tight-bounds" transform="matrix(1,0,0,1,0.2400000000000091,-0.09999999999999432)"><svg viewBox="0 0 395.52 247.2" height="247.2" width="395.52"><g><svg></svg></g><g><svg viewBox="0 0 395.52 247.2" height="247.2" width="395.52"><g transform="matrix(1,0,0,1,75.54432,65.16956536082475)"><svg viewBox="0 0 244.43135999999998 116.8608692783505" height="116.8608692783505" width="244.43135999999998"><g><svg viewBox="0 0 244.43135999999998 116.8608692783505" height="116.8608692783505" width="244.43135999999998"><g><svg viewBox="0 0 244.43135999999998 116.8608692783505" height="116.8608692783505" width="244.43135999999998"><g><svg viewBox="0 0 244.43135999999998 116.8608692783505" height="116.8608692783505" width="244.43135999999998"><g id="textblocktransform"><svg viewBox="0 0 244.43135999999998 116.8608692783505" height="116.8608692783505" width="244.43135999999998" id="textblock"><g><svg viewBox="0 0 244.43135999999998 116.8608692783505" height="116.8608692783505" width="244.43135999999998"><g transform="matrix(1,0,0,1,0,0)"><svg width="244.43135999999998" viewBox="1 -36.2 77.59 37.1" height="116.8608692783505" data-palette-color="#00ebff"><path d="M10.9 0.05L6.75 0 2.45 0.2Q1 0.2 1-0.4L1-0.4Q1-1.1 1.75-1.35L1.75-1.35Q3.35-1.95 4.55-4.03 5.75-6.1 10.58-16.57 15.4-27.05 19.15-35.05L19.15-35.05Q19.5-35.8 19.78-36 20.05-36.2 20.58-36.2 21.1-36.2 21.25-36 21.4-35.8 21.8-34.65 22.2-33.5 22.43-32.9 22.65-32.3 23.15-30.95 23.65-29.6 24.75-26.9 25.85-24.2 29.78-15.08 33.7-5.95 34.3-4.73 34.9-3.5 35.95-2.63 37-1.75 37.77-1.68 38.55-1.6 39.08-1.43 39.6-1.25 39.6-0.65L39.6-0.65Q39.6 0.1 38.25 0.1L38.25 0.1 33.75-0.2 29.1 0Q27.55 0 27.13-0.13 26.7-0.25 26.7-0.65 26.7-1.05 27.1-1.28 27.5-1.5 27.95-1.58 28.4-1.65 28.8-2.02 29.2-2.4 29.2-3.28 29.2-4.15 27.95-7.55 26.7-10.95 25.85-12.55L25.85-12.55Q25.4-13.4 23.8-13.4L23.8-13.4 17.75-13.3 15.1-13.3Q12.85-13.3 12.28-13.05 11.7-12.8 11.33-12 10.95-11.2 10.25-9.78 9.55-8.35 9.3-7.8 9.05-7.25 8.7-6.4L8.7-6.4Q8.05-4.9 8.05-3.9 8.05-2.9 8.63-2.3 9.2-1.7 9.9-1.6L9.9-1.6Q11.75-1.45 11.75-0.65L11.75-0.65Q11.75-0.3 11.6-0.13 11.45 0.05 10.9 0.05L10.9 0.05ZM18.8-28.5Q18.35-28.5 15.95-22.98 13.55-17.45 13.55-16.85 13.55-16.25 14-16.1 14.45-15.95 16.1-15.95L16.1-15.95 17.65-15.95 22.4-16Q24.35-16 24.35-16.73 24.35-17.45 21.9-22.98 19.45-28.5 18.8-28.5L18.8-28.5ZM51.27 0.9Q46.15 0.9 43.12-2.38 40.1-5.65 40.1-10.2 40.1-14.75 43.22-18.15 46.35-21.55 51.47-21.55 56.6-21.55 60.07-18.6 63.55-15.65 63.55-10.4 63.55-5.15 59.97-2.13 56.4 0.9 51.27 0.9ZM50.7-20.2Q48.1-20.2 46.07-18.15 44.05-16.1 44.05-11.4 44.05-6.7 46.8-3.65 49.55-0.6 52.72-0.6 55.9-0.6 57.85-2.78 59.8-4.95 59.8-9.15 59.8-13.35 57.4-16.78 55-20.2 50.7-20.2L50.7-20.2ZM77 0.3L73.45 0.2 69.9 0.3Q67.9 0.3 67.9-0.38 67.9-1.05 68.65-1.3L68.65-1.3Q68.7-1.3 68.84-1.35L68.84-1.35Q70-1.75 70.34-2.55 70.7-3.35 70.7-10.3L70.7-10.3 70.7-14.7Q70.7-16.15 70.34-17 70-17.85 69.7-18.05 69.4-18.25 68.67-18.38 67.95-18.5 67.62-18.63 67.3-18.75 67.3-19.03 67.3-19.3 67.42-19.45 67.55-19.6 67.92-19.78 68.3-19.95 68.7-20.1L68.7-20.1Q70.09-20.5 71-20.9 71.9-21.3 72.37-21.5 72.84-21.7 73-21.8L73-21.8Q73.34-21.95 73.84-21.95L73.84-21.95Q74.59-21.95 74.59-21L74.59-21 74.3-18.6 74.3-4.9Q74.3-3.4 74.77-2.55 75.25-1.7 75.77-1.5 76.3-1.3 77-1.25 77.7-1.2 77.9-1.2L77.9-1.2Q78.59-1.1 78.59-0.5L78.59-0.5Q78.59 0.35 77.75 0.35L77.75 0.35 77 0.3ZM72.59-26.65Q71.59-26.65 70.87-27.7 70.15-28.75 70.15-29.43 70.15-30.1 71.02-31.18 71.9-32.25 72.67-32.25 73.45-32.25 74.2-31.23 74.95-30.2 74.95-29.4 74.95-28.6 74-27.63 73.05-26.65 72.59-26.65L72.59-26.65Z" opacity="1" transform="matrix(1,0,0,1,0,0)" fill="#00ebff" class="wordmark-text-0" data-fill-palette-color="primary" id="text-0"></path></svg></g></svg></g></svg></g></svg></g></svg></g></svg></g></svg></g><path d="M158.3 59.17L158.3 10.703 384.095 10.703 384.095 236.497 158.3 236.497 158.3 188.03 168.838 188.03 168.838 225.959 373.556 225.959 373.556 21.241 168.838 21.241 168.838 59.17Z" fill="#00ebff" stroke="transparent" data-fill-palette-color="tertiary"></path></svg></g><defs></defs></svg><rect width="395.52" height="247.2" fill="none" stroke="none" visibility="hidden"></rect></g></svg></g></svg>