<?xml version="1.0" encoding="UTF-8"?>
<!DOCTYPE svg PUBLIC "-//W3C//DTD SVG 1.1//EN" "http://www.w3.org/Graphics/SVG/1.1/DTD/svg11.dtd">
<svg xmlns="http://www.w3.org/2000/svg" version="1.1" width="959px" height="771px" style="shape-rendering:geometricPrecision; text-rendering:geometricPrecision; image-rendering:optimizeQuality; fill-rule:evenodd; clip-rule:evenodd" xmlns:xlink="http://www.w3.org/1999/xlink">
<g><path style="opacity:1" fill="#c4c4bf" d="M -0.5,-0.5 C 0.5,-0.5 1.5,-0.5 2.5,-0.5C 3.12225,1.33501 4.45559,2.50167 6.5,3C 103.54,3.16904 200.54,3.66904 297.5,4.5C 353.643,3.11577 411.476,2.11577 471,1.5C 513.997,1.82656 556.997,2.15989 600,2.5C 606.419,1.68709 612.919,1.18709 619.5,1C 676.668,0.832834 733.668,0.332834 790.5,-0.5C 846.5,-0.5 902.5,-0.5 958.5,-0.5C 958.5,1.83333 958.5,4.16667 958.5,6.5C 854.122,5.83683 749.955,6.50349 646,8.5C 610.251,7.93366 573.585,7.60033 536,7.5C 509.839,8.21883 483.672,8.71883 457.5,9C 459.167,9.33333 460.833,9.66667 462.5,10C 423.5,10.3333 384.5,10.6667 345.5,11C 345.833,11.3333 346.167,11.6667 346.5,12C 345.5,12.3333 344.5,12.6667 343.5,13C 338.25,13.1929 333.083,13.6929 328,14.5C 221.501,13.7577 113.334,13.2577 3.5,13C 2.0993,12.5899 0.765972,12.0899 -0.5,11.5C -0.5,7.5 -0.5,3.5 -0.5,-0.5 Z"/></g>
<g><path style="opacity:1" fill="#bfbfba" d="M 2.5,-0.5 C 265.167,-0.5 527.833,-0.5 790.5,-0.5C 733.668,0.332834 676.668,0.832834 619.5,1C 612.919,1.18709 606.419,1.68709 600,2.5C 556.997,2.15989 513.997,1.82656 471,1.5C 411.476,2.11577 353.643,3.11577 297.5,4.5C 200.54,3.66904 103.54,3.16904 6.5,3C 4.45559,2.50167 3.12225,1.33501 2.5,-0.5 Z"/></g>
<g><path style="opacity:1" fill="#c9c9c4" d="M 958.5,6.5 C 958.5,30.5 958.5,54.5 958.5,78.5C 944.014,78.7176 930.014,79.5509 916.5,81C 927.833,81.3333 939.167,81.6667 950.5,82C 934.833,82.3333 919.167,82.6667 903.5,83C 904.5,83.3333 905.5,83.6667 906.5,84C 889.167,84.6667 889.167,85.3333 906.5,86C 899.5,86.3333 892.5,86.6667 885.5,87C 885.833,87.3333 886.167,87.6667 886.5,88C 883.5,88.3333 880.5,88.6667 877.5,89C 881.833,89.3333 886.167,89.6667 890.5,90C 881.71,90.0787 873.043,91.0787 864.5,93C 867.833,93.3333 871.167,93.6667 874.5,94C 867.043,94.1819 859.71,95.1819 852.5,97C 855.833,97.3333 859.167,97.6667 862.5,98C 857.5,98.3333 852.5,98.6667 847.5,99C 848.5,99.3333 849.5,99.6667 850.5,100C 839.833,100.667 839.833,101.333 850.5,102C 846.167,102.333 841.833,102.667 837.5,103C 837.833,103.333 838.167,103.667 838.5,104C 836.833,104.333 835.167,104.667 833.5,105C 836.5,105.333 839.5,105.667 842.5,106C 837.833,106.333 833.167,106.667 828.5,107C 829.167,107.333 829.833,107.667 830.5,108C 822.5,108.667 822.5,109.333 830.5,110C 827.167,110.333 823.833,110.667 820.5,111C 821.167,111.333 821.833,111.667 822.5,112C 814.5,112.667 814.5,113.333 822.5,114C 819.167,114.333 815.833,114.667 812.5,115C 813.167,115.333 813.833,115.667 814.5,116C 807.833,116.667 807.833,117.333 814.5,118C 811.5,118.333 808.5,118.667 805.5,119C 805.833,119.333 806.167,119.667 806.5,120C 805.167,120.333 803.833,120.667 802.5,121C 805.167,121.333 807.833,121.667 810.5,122C 805.27,122.037 800.27,123.037 795.5,125C 797.833,125.333 800.167,125.667 802.5,126C 799.167,126.333 795.833,126.667 792.5,127C 793.167,127.333 793.833,127.667 794.5,128C 792.833,128.333 791.167,128.667 789.5,129C 792.5,129.333 795.5,129.667 798.5,130C 794.5,130.333 790.5,130.667 786.5,131C 787.833,131.333 789.167,131.667 790.5,132C 781.167,132.667 781.167,133.333 790.5,134C 787.167,134.333 783.833,134.667 780.5,135C 781.167,135.333 781.833,135.667 782.5,136C 775.833,136.667 775.833,137.333 782.5,138C 780.167,138.333 777.833,138.667 775.5,139C 776.5,139.333 777.5,139.667 778.5,140C 770.5,140.667 770.5,141.333 778.5,142C 774.603,142.224 770.936,143.224 767.5,145C 769.833,145.333 772.167,145.667 774.5,146C 771.167,146.333 767.833,146.667 764.5,147C 765.167,147.333 765.833,147.667 766.5,148C 761.167,148.667 761.167,149.333 766.5,150C 762.759,150.531 759.759,151.531 757.5,153C 759.167,153.333 760.833,153.667 762.5,154C 760.167,154.333 757.833,154.667 755.5,155C 756.5,155.333 757.5,155.667 758.5,156C 751.833,156.667 751.833,157.333 758.5,158C 754.808,157.996 751.475,158.996 748.5,161C 750.5,161.333 752.5,161.667 754.5,162C 751.833,162.333 749.167,162.667 746.5,163C 747.833,163.333 749.167,163.667 750.5,164C 742.5,164.667 742.5,165.333 750.5,166C 746.844,166.079 743.51,167.079 740.5,169C 742.5,169.333 744.5,169.667 746.5,170C 743.833,170.333 741.167,170.667 738.5,171C 739.167,171.333 739.833,171.667 740.5,172C 739.167,172.333 737.833,172.667 736.5,173C 738.5,173.333 740.5,173.667 742.5,174C 738.844,174.079 735.51,175.079 732.5,177C 740.167,177.813 739.834,178.479 731.5,179C 732.5,179.333 733.5,179.667 734.5,180C 727.833,180.667 727.833,181.333 734.5,182C 731.044,181.907 728.044,182.907 725.5,185C 727.167,185.333 728.833,185.667 730.5,186C 726.25,186.419 722.083,185.919 718,184.5C 701.227,188.108 690.394,198.108 685.5,214.5C 685.693,221.458 688.693,227.292 694.5,232C 690.5,232.667 690.5,233.333 694.5,234C 692.899,234.273 691.399,234.773 690,235.5C 684.385,230.295 679.219,224.628 674.5,218.5C 663.397,222.623 654.23,229.289 647,238.5C 638.496,256.492 643.829,268.158 663,273.5C 666.42,272.818 669.754,271.818 673,270.5C 674.734,271.249 676.567,271.749 678.5,272C 676.5,272.333 674.5,272.667 672.5,273C 674.878,273.974 674.544,274.641 671.5,275C 678.167,275.667 678.167,276.333 671.5,277C 671.043,277.414 670.709,277.914 670.5,278.5C 671.729,279.281 673.062,279.781 674.5,280C 672.833,280.333 671.167,280.667 669.5,281C 670.634,282.016 670.301,282.683 668.5,283C 676.5,283.667 676.5,284.333 668.5,285C 670.878,285.974 670.544,286.641 667.5,287C 673.837,287.837 673.503,288.503 666.5,289C 669.167,289.667 669.167,290.333 666.5,291C 671.508,291.869 671.175,292.536 665.5,293C 666.634,294.016 666.301,294.683 664.5,295C 672.5,295.667 672.5,296.333 664.5,297C 666.878,297.974 666.544,298.641 663.5,299C 664.5,299.333 665.5,299.667 666.5,300C 661.223,301.693 661.223,303.193 666.5,304.5C 654.167,304.5 641.833,304.5 629.5,304.5C 636.549,299.95 642.049,293.95 646,286.5C 648.147,276.963 644.981,269.796 636.5,265C 629.029,262.498 622.029,263.498 615.5,268C 608.84,272.326 604.007,278.159 601,285.5C 600.014,303.007 608.181,310.007 625.5,306.5C 625.5,307.167 625.833,307.5 626.5,307.5C 637.184,307.6 644.684,312.6 649,322.5C 650.137,343.126 650.637,363.793 650.5,384.5C 650.643,404.882 650.143,425.216 649,445.5C 646.033,457.077 638.533,462.41 626.5,461.5C 626.5,462.5 626.5,463.5 626.5,464.5C 638.167,464.5 649.833,464.5 661.5,464.5C 662.952,465.302 664.618,465.802 666.5,466C 660.312,466.548 660.312,467.881 666.5,470C 661.167,470.667 661.167,471.333 666.5,472C 665.5,472.333 664.5,472.667 663.5,473C 670.167,473.667 670.167,474.333 663.5,475C 666.544,475.359 666.878,476.026 664.5,477C 671.503,477.497 671.837,478.163 665.5,479C 666.833,479.667 666.833,480.333 665.5,481C 671.175,481.464 671.508,482.131 666.5,483C 668.301,483.317 668.634,483.984 667.5,485C 676.833,485.667 676.833,486.333 667.5,487C 670.544,487.359 670.878,488.026 668.5,489C 675.503,489.497 675.837,490.163 669.5,491C 670.833,491.667 670.833,492.333 669.5,493C 675.175,493.464 675.508,494.131 670.5,495C 674.852,495.419 675.185,496.086 671.5,497C 677.175,497.464 677.508,498.131 672.5,499C 675.167,499.667 675.167,500.333 672.5,501C 679.503,501.497 679.837,502.163 673.5,503C 676.544,503.359 676.878,504.026 674.5,505C 678.852,505.419 679.185,506.086 675.5,507C 678.544,507.359 678.878,508.026 676.5,509C 683.503,509.497 683.837,510.163 677.5,511C 678.67,512.755 680.337,513.755 682.5,514C 677.167,514.667 677.167,515.333 682.5,516C 681.5,516.333 680.5,516.667 679.5,517C 687.834,517.521 688.167,518.187 680.5,519C 682.301,519.317 682.634,519.984 681.5,521C 687.175,521.464 687.508,522.131 682.5,523C 686.852,523.419 687.185,524.086 683.5,525C 691.834,525.521 692.167,526.187 684.5,527C 686.301,527.317 686.634,527.984 685.5,529C 691.175,529.464 691.508,530.131 686.5,531C 690.852,531.419 691.185,532.086 687.5,533C 689.833,533.333 692.167,533.667 694.5,534C 688.312,534.548 688.312,535.881 694.5,538C 690.5,538.667 690.5,539.333 694.5,540C 693.833,540.333 693.167,540.667 692.5,541C 699.503,541.497 699.837,542.163 693.5,543C 699.175,543.464 699.508,544.131 694.5,545C 701.503,545.497 701.837,546.163 695.5,547C 696.5,547.333 697.5,547.667 698.5,548C 698.167,548.333 697.833,548.667 697.5,549C 703.175,549.464 703.508,550.131 698.5,551C 702.852,551.419 703.185,552.086 699.5,553C 701.833,553.333 704.167,553.667 706.5,554C 704.833,554.333 703.167,554.667 701.5,555C 704.028,557.057 707.028,558.057 710.5,558C 708.167,558.333 705.833,558.667 703.5,559C 704.5,559.333 705.5,559.667 706.5,560C 706.167,560.333 705.833,560.667 705.5,561C 711.175,561.464 711.508,562.131 706.5,563C 710.852,563.419 711.185,564.086 707.5,565C 709.833,565.333 712.167,565.667 714.5,566C 707.833,566.667 707.833,567.333 714.5,568C 713.167,568.333 711.833,568.667 710.5,569C 712.5,569.333 714.5,569.667 716.5,570C 715.167,570.333 713.833,570.667 712.5,571C 714.301,571.317 714.634,571.984 713.5,573C 716.5,573.333 719.5,573.667 722.5,574C 720.167,574.333 717.833,574.667 715.5,575C 718.544,575.359 718.878,576.026 716.5,577C 718.5,577.333 720.5,577.667 722.5,578C 717.167,578.667 717.167,579.333 722.5,580C 721.5,580.333 720.5,580.667 719.5,581C 721.833,581.333 724.167,581.667 726.5,582C 719.833,582.667 719.833,583.333 726.5,584C 725.5,584.333 724.5,584.667 723.5,585C 731.834,585.521 732.167,586.187 724.5,587C 727.51,588.921 730.844,589.921 734.5,590C 732.5,590.333 730.5,590.667 728.5,591C 731.51,592.921 734.844,593.921 738.5,594C 736.5,594.333 734.5,594.667 732.5,595C 734.301,595.317 734.634,595.984 733.5,597C 736.5,597.333 739.5,597.667 742.5,598C 740.167,598.333 737.833,598.667 735.5,599C 736.5,599.333 737.5,599.667 738.5,600C 738.167,600.333 737.833,600.667 737.5,601C 739.167,601.333 740.833,601.667 742.5,602C 738.5,602.667 738.5,603.333 742.5,604C 742.167,604.333 741.833,604.667 741.5,605C 744.5,605.333 747.5,605.667 750.5,606C 748.167,606.333 745.833,606.667 743.5,607C 744.5,607.333 745.5,607.667 746.5,608C 746.167,608.333 745.833,608.667 745.5,609C 748.5,609.333 751.5,609.667 754.5,610C 752.167,610.333 749.833,610.667 747.5,611C 748.5,611.333 749.5,611.667 750.5,612C 750.167,612.333 749.833,612.667 749.5,613C 752.5,613.333 755.5,613.667 758.5,614C 756.5,614.333 754.5,614.667 752.5,615C 753.833,615.333 755.167,615.667 756.5,616C 755.833,616.333 755.167,616.667 754.5,617C 757.167,617.333 759.833,617.667 762.5,618C 760.5,618.333 758.5,618.667 756.5,619C 759.51,620.921 762.844,621.921 766.5,622C 759.833,622.667 759.833,623.333 766.5,624C 765.5,624.333 764.5,624.667 763.5,625C 765.833,625.333 768.167,625.667 770.5,626C 765.167,626.667 765.167,627.333 770.5,628C 769.833,628.333 769.167,628.667 768.5,629C 771.833,629.333 775.167,629.667 778.5,630C 776.167,630.333 773.833,630.667 771.5,631C 772.5,631.333 773.5,631.667 774.5,632C 774.167,632.333 773.833,632.667 773.5,633C 776.5,633.333 779.5,633.667 782.5,634C 780.5,634.333 778.5,634.667 776.5,635C 780.83,637.132 785.497,638.132 790.5,638C 787.833,638.333 785.167,638.667 782.5,639C 783.833,639.333 785.167,639.667 786.5,640C 786.167,640.333 785.833,640.667 785.5,641C 788.5,641.333 791.5,641.667 794.5,642C 792.5,642.333 790.5,642.667 788.5,643C 792.83,645.132 797.497,646.132 802.5,646C 799.833,646.333 797.167,646.667 794.5,647C 795.833,647.333 797.167,647.667 798.5,648C 798.167,648.333 797.833,648.667 797.5,649C 800.5,649.333 803.5,649.667 806.5,650C 798.5,650.667 798.5,651.333 806.5,652C 805.833,652.333 805.167,652.667 804.5,653C 807.833,653.333 811.167,653.667 814.5,654C 805.167,654.667 805.167,655.333 814.5,656C 813.5,656.333 812.5,656.667 811.5,657C 815.167,657.333 818.833,657.667 822.5,658C 819.833,658.333 817.167,658.667 814.5,659C 819.652,660.859 824.986,661.859 830.5,662C 819.833,662.667 819.833,663.333 830.5,664C 829.167,664.333 827.833,664.667 826.5,665C 830.5,665.333 834.5,665.667 838.5,666C 835.833,666.333 833.167,666.667 830.5,667C 836.907,669.101 843.574,670.101 850.5,670C 847.167,670.333 843.833,670.667 840.5,671C 842.5,671.333 844.5,671.667 846.5,672C 845.833,672.333 845.167,672.667 844.5,673C 849.167,673.333 853.833,673.667 858.5,674C 855.833,674.333 853.167,674.667 850.5,675C 856.907,677.101 863.574,678.101 870.5,678C 858.5,678.667 858.5,679.333 870.5,680C 869.5,680.333 868.5,680.667 867.5,681C 873.833,681.333 880.167,681.667 886.5,682C 882.5,682.333 878.5,682.667 874.5,683C 876.777,683.973 878.943,684.14 881,683.5C 882.722,683.611 882.888,684.111 881.5,685C 888.5,685.333 895.5,685.667 902.5,686C 885.167,686.667 885.167,687.333 902.5,688C 901.167,688.333 899.833,688.667 898.5,689C 907.833,689.333 917.167,689.667 926.5,690C 920.833,690.333 915.167,690.667 909.5,691C 915.505,692.025 921.171,692.358 926.5,692C 925.833,692.333 925.167,692.667 924.5,693C 935.828,693.5 947.162,693.667 958.5,693.5C 958.5,718.167 958.5,742.833 958.5,767.5C 834.929,767.498 711.429,766.831 588,765.5C 546.139,766.223 504.472,766.557 463,766.5C 461.601,765.773 460.101,765.273 458.5,765C 459.833,764.667 461.167,764.333 462.5,764C 423.5,763.667 384.5,763.333 345.5,763C 345.833,762.667 346.167,762.333 346.5,762C 230.812,761.175 115.145,761.341 -0.5,762.5C -0.5,512.167 -0.5,261.833 -0.5,11.5C 0.765972,12.0899 2.0993,12.5899 3.5,13C 113.334,13.2577 221.501,13.7577 328,14.5C 333.083,13.6929 338.25,13.1929 343.5,13C 344.5,12.6667 345.5,12.3333 346.5,12C 346.167,11.6667 345.833,11.3333 345.5,11C 384.5,10.6667 423.5,10.3333 462.5,10C 460.833,9.66667 459.167,9.33333 457.5,9C 483.672,8.71883 509.839,8.21883 536,7.5C 573.585,7.60033 610.251,7.93366 646,8.5C 749.955,6.50349 854.122,5.83683 958.5,6.5 Z"/></g>
<g><path style="opacity:1" fill="#cdcdc8" d="M 958.5,78.5 C 958.5,283.5 958.5,488.5 958.5,693.5C 947.162,693.667 935.828,693.5 924.5,693C 925.167,692.667 925.833,692.333 926.5,692C 921.171,692.358 915.505,692.025 909.5,691C 915.167,690.667 920.833,690.333 926.5,690C 917.167,689.667 907.833,689.333 898.5,689C 899.833,688.667 901.167,688.333 902.5,688C 885.167,687.333 885.167,686.667 902.5,686C 895.5,685.667 888.5,685.333 881.5,685C 882.888,684.111 882.722,683.611 881,683.5C 878.943,684.14 876.777,683.973 874.5,683C 878.5,682.667 882.5,682.333 886.5,682C 880.167,681.667 873.833,681.333 867.5,681C 868.5,680.667 869.5,680.333 870.5,680C 858.5,679.333 858.5,678.667 870.5,678C 863.574,678.101 856.907,677.101 850.5,675C 853.167,674.667 855.833,674.333 858.5,674C 853.833,673.667 849.167,673.333 844.5,673C 845.167,672.667 845.833,672.333 846.5,672C 844.5,671.667 842.5,671.333 840.5,671C 843.833,670.667 847.167,670.333 850.5,670C 843.574,670.101 836.907,669.101 830.5,667C 833.167,666.667 835.833,666.333 838.5,666C 834.5,665.667 830.5,665.333 826.5,665C 827.833,664.667 829.167,664.333 830.5,664C 819.833,663.333 819.833,662.667 830.5,662C 824.986,661.859 819.652,660.859 814.5,659C 817.167,658.667 819.833,658.333 822.5,658C 818.833,657.667 815.167,657.333 811.5,657C 812.5,656.667 813.5,656.333 814.5,656C 805.167,655.333 805.167,654.667 814.5,654C 811.167,653.667 807.833,653.333 804.5,653C 805.167,652.667 805.833,652.333 806.5,652C 798.5,651.333 798.5,650.667 806.5,650C 803.5,649.667 800.5,649.333 797.5,649C 797.833,648.667 798.167,648.333 798.5,648C 797.167,647.667 795.833,647.333 794.5,647C 797.167,646.667 799.833,646.333 802.5,646C 797.497,646.132 792.83,645.132 788.5,643C 790.5,642.667 792.5,642.333 794.5,642C 791.5,641.667 788.5,641.333 785.5,641C 785.833,640.667 786.167,640.333 786.5,640C 785.167,639.667 783.833,639.333 782.5,639C 785.167,638.667 787.833,638.333 790.5,638C 785.497,638.132 780.83,637.132 776.5,635C 778.5,634.667 780.5,634.333 782.5,634C 779.5,633.667 776.5,633.333 773.5,633C 773.833,632.667 774.167,632.333 774.5,632C 773.5,631.667 772.5,631.333 771.5,631C 773.833,630.667 776.167,630.333 778.5,630C 775.167,629.667 771.833,629.333 768.5,629C 769.167,628.667 769.833,628.333 770.5,628C 765.167,627.333 765.167,626.667 770.5,626C 768.167,625.667 765.833,625.333 763.5,625C 764.5,624.667 765.5,624.333 766.5,624C 759.833,623.333 759.833,622.667 766.5,622C 762.844,621.921 759.51,620.921 756.5,619C 758.5,618.667 760.5,618.333 762.5,618C 759.833,617.667 757.167,617.333 754.5,617C 755.167,616.667 755.833,616.333 756.5,616C 755.167,615.667 753.833,615.333 752.5,615C 754.5,614.667 756.5,614.333 758.5,614C 755.5,613.667 752.5,613.333 749.5,613C 749.833,612.667 750.167,612.333 750.5,612C 749.5,611.667 748.5,611.333 747.5,611C 749.833,610.667 752.167,610.333 754.5,610C 751.5,609.667 748.5,609.333 745.5,609C 745.833,608.667 746.167,608.333 746.5,608C 745.5,607.667 744.5,607.333 743.5,607C 745.833,606.667 748.167,606.333 750.5,606C 747.5,605.667 744.5,605.333 741.5,605C 741.833,604.667 742.167,604.333 742.5,604C 738.5,603.333 738.5,602.667 742.5,602C 740.833,601.667 739.167,601.333 737.5,601C 737.833,600.667 738.167,600.333 738.5,600C 737.5,599.667 736.5,599.333 735.5,599C 737.833,598.667 740.167,598.333 742.5,598C 739.5,597.667 736.5,597.333 733.5,597C 734.634,595.984 734.301,595.317 732.5,595C 734.5,594.667 736.5,594.333 738.5,594C 734.844,593.921 731.51,592.921 728.5,591C 730.5,590.667 732.5,590.333 734.5,590C 730.844,589.921 727.51,588.921 724.5,587C 732.167,586.187 731.834,585.521 723.5,585C 724.5,584.667 725.5,584.333 726.5,584C 719.833,583.333 719.833,582.667 726.5,582C 724.167,581.667 721.833,581.333 719.5,581C 720.5,580.667 721.5,580.333 722.5,580C 717.167,579.333 717.167,578.667 722.5,578C 720.5,577.667 718.5,577.333 716.5,577C 718.878,576.026 718.544,575.359 715.5,575C 717.833,574.667 720.167,574.333 722.5,574C 719.5,573.667 716.5,573.333 713.5,573C 714.634,571.984 714.301,571.317 712.5,571C 713.833,570.667 715.167,570.333 716.5,570C 714.5,569.667 712.5,569.333 710.5,569C 711.833,568.667 713.167,568.333 714.5,568C 707.833,567.333 707.833,566.667 714.5,566C 712.167,565.667 709.833,565.333 707.5,565C 711.185,564.086 710.852,563.419 706.5,563C 711.508,562.131 711.175,561.464 705.5,561C 705.833,560.667 706.167,560.333 706.5,560C 705.5,559.667 704.5,559.333 703.5,559C 705.833,558.667 708.167,558.333 710.5,558C 707.028,558.057 704.028,557.057 701.5,555C 703.167,554.667 704.833,554.333 706.5,554C 704.167,553.667 701.833,553.333 699.5,553C 703.185,552.086 702.852,551.419 698.5,551C 703.508,550.131 703.175,549.464 697.5,549C 697.833,548.667 698.167,548.333 698.5,548C 697.5,547.667 696.5,547.333 695.5,547C 701.837,546.163 701.503,545.497 694.5,545C 699.508,544.131 699.175,543.464 693.5,543C 699.837,542.163 699.503,541.497 692.5,541C 693.167,540.667 693.833,540.333 694.5,540C 690.5,539.333 690.5,538.667 694.5,538C 688.312,535.881 688.312,534.548 694.5,534C 692.167,533.667 689.833,533.333 687.5,533C 691.185,532.086 690.852,531.419 686.5,531C 691.508,530.131 691.175,529.464 685.5,529C 686.634,527.984 686.301,527.317 684.5,527C 692.167,526.187 691.834,525.521 683.5,525C 687.185,524.086 686.852,523.419 682.5,523C 687.508,522.131 687.175,521.464 681.5,521C 682.634,519.984 682.301,519.317 680.5,519C 688.167,518.187 687.834,517.521 679.5,517C 680.5,516.667 681.5,516.333 682.5,516C 677.167,515.333 677.167,514.667 682.5,514C 680.337,513.755 678.67,512.755 677.5,511C 683.837,510.163 683.503,509.497 676.5,509C 678.878,508.026 678.544,507.359 675.5,507C 679.185,506.086 678.852,505.419 674.5,505C 676.878,504.026 676.544,503.359 673.5,503C 679.837,502.163 679.503,501.497 672.5,501C 675.167,500.333 675.167,499.667 672.5,499C 677.508,498.131 677.175,497.464 671.5,497C 675.185,496.086 674.852,495.419 670.5,495C 675.508,494.131 675.175,493.464 669.5,493C 670.833,492.333 670.833,491.667 669.5,491C 675.837,490.163 675.503,489.497 668.5,489C 670.878,488.026 670.544,487.359 667.5,487C 676.833,486.333 676.833,485.667 667.5,485C 668.634,483.984 668.301,483.317 666.5,483C 671.508,482.131 671.175,481.464 665.5,481C 666.833,480.333 666.833,479.667 665.5,479C 671.837,478.163 671.503,477.497 664.5,477C 666.878,476.026 666.544,475.359 663.5,475C 670.167,474.333 670.167,473.667 663.5,473C 664.5,472.667 665.5,472.333 666.5,472C 661.167,471.333 661.167,470.667 666.5,470C 660.312,467.881 660.312,466.548 666.5,466C 664.618,465.802 662.952,465.302 661.5,464.5C 674.517,464.832 687.517,464.499 700.5,463.5C 694.639,462.043 688.972,459.876 683.5,457C 677.85,450.25 675.35,442.416 676,433.5C 675.333,401.167 675.333,368.833 676,336.5C 674.724,319.8 682.224,310.3 698.5,308C 699.756,307.583 700.423,306.75 700.5,305.5C 689.346,304.505 678.012,304.172 666.5,304.5C 661.223,303.193 661.223,301.693 666.5,300C 665.5,299.667 664.5,299.333 663.5,299C 666.544,298.641 666.878,297.974 664.5,297C 672.5,296.333 672.5,295.667 664.5,295C 666.301,294.683 666.634,294.016 665.5,293C 671.175,292.536 671.508,291.869 666.5,291C 669.167,290.333 669.167,289.667 666.5,289C 673.503,288.503 673.837,287.837 667.5,287C 670.544,286.641 670.878,285.974 668.5,285C 676.5,284.333 676.5,283.667 668.5,283C 670.301,282.683 670.634,282.016 669.5,281C 671.167,280.667 672.833,280.333 674.5,280C 673.062,279.781 671.729,279.281 670.5,278.5C 670.709,277.914 671.043,277.414 671.5,277C 678.167,276.333 678.167,275.667 671.5,275C 674.544,274.641 674.878,273.974 672.5,273C 674.5,272.667 676.5,272.333 678.5,272C 676.567,271.749 674.734,271.249 673,270.5C 669.754,271.818 666.42,272.818 663,273.5C 643.829,268.158 638.496,256.492 647,238.5C 654.23,229.289 663.397,222.623 674.5,218.5C 679.219,224.628 684.385,230.295 690,235.5C 691.399,234.773 692.899,234.273 694.5,234C 690.5,233.333 690.5,232.667 694.5,232C 688.693,227.292 685.693,221.458 685.5,214.5C 690.394,198.108 701.227,188.108 718,184.5C 722.083,185.919 726.25,186.419 730.5,186C 728.833,185.667 727.167,185.333 725.5,185C 728.044,182.907 731.044,181.907 734.5,182C 727.833,181.333 727.833,180.667 734.5,180C 733.5,179.667 732.5,179.333 731.5,179C 739.834,178.479 740.167,177.813 732.5,177C 735.51,175.079 738.844,174.079 742.5,174C 740.5,173.667 738.5,173.333 736.5,173C 737.833,172.667 739.167,172.333 740.5,172C 739.833,171.667 739.167,171.333 738.5,171C 741.167,170.667 743.833,170.333 746.5,170C 744.5,169.667 742.5,169.333 740.5,169C 743.51,167.079 746.844,166.079 750.5,166C 742.5,165.333 742.5,164.667 750.5,164C 749.167,163.667 747.833,163.333 746.5,163C 749.167,162.667 751.833,162.333 754.5,162C 752.5,161.667 750.5,161.333 748.5,161C 751.475,158.996 754.808,157.996 758.5,158C 751.833,157.333 751.833,156.667 758.5,156C 757.5,155.667 756.5,155.333 755.5,155C 757.833,154.667 760.167,154.333 762.5,154C 760.833,153.667 759.167,153.333 757.5,153C 759.759,151.531 762.759,150.531 766.5,150C 761.167,149.333 761.167,148.667 766.5,148C 765.833,147.667 765.167,147.333 764.5,147C 767.833,146.667 771.167,146.333 774.5,146C 772.167,145.667 769.833,145.333 767.5,145C 770.936,143.224 774.603,142.224 778.5,142C 770.5,141.333 770.5,140.667 778.5,140C 777.5,139.667 776.5,139.333 775.5,139C 777.833,138.667 780.167,138.333 782.5,138C 775.833,137.333 775.833,136.667 782.5,136C 781.833,135.667 781.167,135.333 780.5,135C 783.833,134.667 787.167,134.333 790.5,134C 781.167,133.333 781.167,132.667 790.5,132C 789.167,131.667 787.833,131.333 786.5,131C 790.5,130.667 794.5,130.333 798.5,130C 795.5,129.667 792.5,129.333 789.5,129C 791.167,128.667 792.833,128.333 794.5,128C 793.833,127.667 793.167,127.333 792.5,127C 795.833,126.667 799.167,126.333 802.5,126C 800.167,125.667 797.833,125.333 795.5,125C 800.27,123.037 805.27,122.037 810.5,122C 807.833,121.667 805.167,121.333 802.5,121C 803.833,120.667 805.167,120.333 806.5,120C 806.167,119.667 805.833,119.333 805.5,119C 808.5,118.667 811.5,118.333 814.5,118C 807.833,117.333 807.833,116.667 814.5,116C 813.833,115.667 813.167,115.333 812.5,115C 815.833,114.667 819.167,114.333 822.5,114C 814.5,113.333 814.5,112.667 822.5,112C 821.833,111.667 821.167,111.333 820.5,111C 823.833,110.667 827.167,110.333 830.5,110C 822.5,109.333 822.5,108.667 830.5,108C 829.833,107.667 829.167,107.333 828.5,107C 833.167,106.667 837.833,106.333 842.5,106C 839.5,105.667 836.5,105.333 833.5,105C 835.167,104.667 836.833,104.333 838.5,104C 838.167,103.667 837.833,103.333 837.5,103C 841.833,102.667 846.167,102.333 850.5,102C 839.833,101.333 839.833,100.667 850.5,100C 849.5,99.6667 848.5,99.3333 847.5,99C 852.5,98.6667 857.5,98.3333 862.5,98C 859.167,97.6667 855.833,97.3333 852.5,97C 859.71,95.1819 867.043,94.1819 874.5,94C 871.167,93.6667 867.833,93.3333 864.5,93C 873.043,91.0787 881.71,90.0787 890.5,90C 886.167,89.6667 881.833,89.3333 877.5,89C 880.5,88.6667 883.5,88.3333 886.5,88C 886.167,87.6667 885.833,87.3333 885.5,87C 892.5,86.6667 899.5,86.3333 906.5,86C 889.167,85.3333 889.167,84.6667 906.5,84C 905.5,83.6667 904.5,83.3333 903.5,83C 919.167,82.6667 934.833,82.3333 950.5,82C 939.167,81.6667 927.833,81.3333 916.5,81C 930.014,79.5509 944.014,78.7176 958.5,78.5 Z"/></g>
<g><path style="opacity:1" fill="#b8b8b4" d="M 713.5,188.5 C 723.174,187.254 730.341,190.92 735,199.5C 737.242,205.478 736.575,211.145 733,216.5C 725.179,228.33 714.345,233.497 700.5,232C 688.511,224.813 686.344,215.313 694,203.5C 699.283,196.692 705.783,191.692 713.5,188.5 Z"/></g>
<g><path style="opacity:1" fill="#ccccc7" d="M 713.5,194.5 C 724.947,195.112 730.113,201.112 729,212.5C 723.993,222.083 716.16,226.583 705.5,226C 696.102,220.802 694.269,213.636 700,204.5C 703.579,199.731 708.079,196.397 713.5,194.5 Z"/></g>
<g><path style="opacity:1" fill="#b8b8b3" d="M 671.5,223.5 C 674.245,223.373 676.245,224.54 677.5,227C 669.333,229.505 662.5,234.005 657,240.5C 650.352,251.559 653.018,259.226 665,263.5C 673.87,261.628 680.87,256.962 686,249.5C 685.664,246.776 684.331,244.443 682,242.5C 679,244.833 676,247.167 673,249.5C 671.764,248.601 670.93,247.434 670.5,246C 674.635,241.535 679.135,237.368 684,233.5C 687.896,237.725 691.396,242.225 694.5,247C 688.199,257.633 679.199,264.966 667.5,269C 656.697,270.53 649.863,266.03 647,255.5C 646.401,248.172 648.568,241.672 653.5,236C 659.043,231.071 665.043,226.904 671.5,223.5 Z"/></g>
<g><path style="opacity:1" fill="#b7b7b3" d="M 629.5,304.5 C 627.517,304.157 626.183,304.824 625.5,306.5C 608.181,310.007 600.014,303.007 601,285.5C 604.007,278.159 608.84,272.326 615.5,268C 622.029,263.498 629.029,262.498 636.5,265C 644.981,269.796 648.147,276.963 646,286.5C 642.049,293.95 636.549,299.95 629.5,304.5 Z"/></g>
<g><path style="opacity:1" fill="#ccccc7" d="M 624.5,269.5 C 637.297,271.135 641.797,278.135 638,290.5C 634.358,295.146 629.858,298.646 624.5,301C 612.353,302.187 606.853,296.687 608,284.5C 611.822,277.504 617.322,272.504 624.5,269.5 Z"/></g>
<g><path style="opacity:1" fill="#2d6396" d="M 564.5,312.5 C 562.564,313.429 560.897,314.763 559.5,316.5C 560.467,318.79 561.8,320.79 563.5,322.5C 527.232,303.468 494.732,308.468 466,337.5C 450.389,357.946 445.889,380.612 452.5,405.5C 452.875,407.698 453.542,409.698 454.5,411.5C 464.884,437.383 483.884,452.883 511.5,458C 555.974,461.178 584.14,441.344 596,398.5C 599.504,377.52 595.004,358.52 582.5,341.5C 586.021,340.318 589.021,338.318 591.5,335.5C 591.833,335.5 592.167,335.5 592.5,335.5C 617.045,373.552 614.212,409.552 584,443.5C 551.112,472.005 515.279,476.172 476.5,456C 471.339,452.334 466.339,448.501 461.5,444.5C 455.665,437.483 450.332,430.15 445.5,422.5C 429.839,385.654 436.173,353.154 464.5,325C 489.976,302.715 518.976,296.382 551.5,306C 556.173,307.67 560.507,309.837 564.5,312.5 Z"/></g>
<g><path style="opacity:1" fill="#a4b2bb" d="M 629.5,304.5 C 641.833,304.5 654.167,304.5 666.5,304.5C 678.012,304.172 689.346,304.505 700.5,305.5C 675.477,304.843 650.811,305.51 626.5,307.5C 625.833,307.5 625.5,307.167 625.5,306.5C 626.183,304.824 627.517,304.157 629.5,304.5 Z"/></g>
<g><path style="opacity:1" fill="#2c6396" d="M 416.5,459.5 C 420.016,460.611 423.683,461.611 427.5,462.5C 427.833,462.833 428.167,463.167 428.5,463.5C 426.604,464.466 424.604,464.799 422.5,464.5C 411.833,464.5 401.167,464.5 390.5,464.5C 392.762,463.177 395.096,461.843 397.5,460.5C 396.73,458.728 395.397,457.728 393.5,457.5C 389.299,459.094 385.632,461.428 382.5,464.5C 382.167,464.5 381.833,464.5 381.5,464.5C 371.478,464.832 361.478,464.499 351.5,463.5C 351.709,462.914 352.043,462.414 352.5,462C 369.236,461.624 375.736,453.457 372,437.5C 367.093,425.63 362.26,413.63 357.5,401.5C 340.176,400.334 322.843,400.167 305.5,401C 301.671,410.483 297.838,419.983 294,429.5C 291.367,437.106 291.034,444.773 293,452.5C 294.046,454.09 295.213,455.59 296.5,457C 300.676,459.755 305.01,461.922 309.5,463.5C 292.167,464.833 274.833,464.833 257.5,463.5C 269.067,460.451 277.567,453.451 283,442.5C 301.463,397.771 319.13,352.771 336,307.5C 338.958,304.918 341.958,304.918 345,307.5C 363.368,353.487 382.368,399.487 402,445.5C 404.112,449.278 406.612,452.778 409.5,456C 411.577,457.705 413.91,458.872 416.5,459.5 Z"/></g>
<g><path style="opacity:1" fill="#2a6296" d="M 700.5,305.5 C 700.423,306.75 699.756,307.583 698.5,308C 682.224,310.3 674.724,319.8 676,336.5C 675.333,368.833 675.333,401.167 676,433.5C 675.35,442.416 677.85,450.25 683.5,457C 688.972,459.876 694.639,462.043 700.5,463.5C 687.517,464.499 674.517,464.832 661.5,464.5C 649.833,464.5 638.167,464.5 626.5,464.5C 626.5,463.5 626.5,462.5 626.5,461.5C 638.533,462.41 646.033,457.077 649,445.5C 650.143,425.216 650.643,404.882 650.5,384.5C 650.637,363.793 650.137,343.126 649,322.5C 644.684,312.6 637.184,307.6 626.5,307.5C 650.811,305.51 675.477,304.843 700.5,305.5 Z"/></g>
<g><path style="opacity:1" fill="#265887" d="M 564.5,312.5 C 570.992,320.136 577.492,327.802 584,335.5C 585.376,334.295 586.542,332.962 587.5,331.5C 589.167,332.5 590.5,333.833 591.5,335.5C 589.021,338.318 586.021,340.318 582.5,341.5C 577.139,334.139 570.806,327.806 563.5,322.5C 561.8,320.79 560.467,318.79 559.5,316.5C 560.897,314.763 562.564,313.429 564.5,312.5 Z"/></g>
<g><path style="opacity:1" fill="#2f6496" d="M 569.5,350.5 C 565.909,346.701 561.909,343.367 557.5,340.5C 532.71,325.173 508.376,326.006 484.5,343C 462.949,362.371 456.615,385.871 465.5,413.5C 468.132,420.091 471.799,426.091 476.5,431.5C 475.127,431.657 473.793,431.49 472.5,431C 469.617,427.624 466.951,424.124 464.5,420.5C 461.812,414.462 459.145,408.462 456.5,402.5C 450.763,370.141 461.429,344.641 488.5,326C 515.76,311.994 541.76,313.994 566.5,332C 593.983,358.068 598.817,387.902 581,421.5C 578.5,424.667 576,427.833 573.5,431C 572.365,431.749 571.365,431.583 570.5,430.5C 585.447,411.078 588.613,389.745 580,366.5C 576.738,360.967 573.238,355.634 569.5,350.5 Z"/></g>
<g><path style="opacity:1" fill="#b6b7b3" d="M 592.5,335.5 C 592.167,335.5 591.833,335.5 591.5,335.5C 590.5,333.833 589.167,332.5 587.5,331.5C 587.5,331.167 587.5,330.833 587.5,330.5C 588.552,330.649 589.552,330.483 590.5,330C 595.354,325.645 600.354,321.478 605.5,317.5C 606.382,318.76 607.382,319.926 608.5,321C 602.971,325.699 597.638,330.532 592.5,335.5 Z"/></g>
<g><path style="opacity:1" fill="#366999" d="M 564.5,312.5 C 573.319,316.98 580.985,322.98 587.5,330.5C 587.5,330.833 587.5,331.167 587.5,331.5C 586.542,332.962 585.376,334.295 584,335.5C 577.492,327.802 570.992,320.136 564.5,312.5 Z"/></g>
<g><path style="opacity:1" fill="#c6c7c3" d="M 329.5,335.5 C 331.786,338.463 333.619,341.796 335,345.5C 341.817,362.129 348.317,378.796 354.5,395.5C 338.819,395.833 323.152,395.499 307.5,394.5C 315.289,375.019 322.622,355.352 329.5,335.5 Z"/></g>
<g><path style="opacity:1" fill="#c5c7c4" d="M 563.5,322.5 C 570.806,327.806 577.139,334.139 582.5,341.5C 595.004,358.52 599.504,377.52 596,398.5C 584.14,441.344 555.974,461.178 511.5,458C 483.884,452.883 464.884,437.383 454.5,411.5C 454.435,411.062 454.601,410.728 455,410.5C 457.952,414.099 461.118,417.433 464.5,420.5C 466.951,424.124 469.617,427.624 472.5,431C 473.793,431.49 475.127,431.657 476.5,431.5C 478.446,430.746 479.279,429.412 479,427.5C 474.92,422.257 470.42,417.59 465.5,413.5C 456.615,385.871 462.949,362.371 484.5,343C 508.376,326.006 532.71,325.173 557.5,340.5C 555.5,341.833 553.5,343.167 551.5,344.5C 546.395,341.77 541.062,339.937 535.5,339C 543.788,346.294 547.121,355.46 545.5,366.5C 544.833,368.5 544.167,370.5 543.5,372.5C 542.069,373.78 541.402,375.447 541.5,377.5C 532.229,387.272 522.729,396.938 513,406.5C 508.198,414.131 507.365,422.131 510.5,430.5C 527.157,431.666 543.823,431.833 560.5,431C 580.447,409.116 582.78,385.616 567.5,360.5C 567.068,359.29 566.401,358.29 565.5,357.5C 565.5,357.167 565.5,356.833 565.5,356.5C 567.69,355.025 569.023,353.025 569.5,350.5C 573.238,355.634 576.738,360.967 580,366.5C 588.613,389.745 585.447,411.078 570.5,430.5C 571.365,431.583 572.365,431.749 573.5,431C 576,427.833 578.5,424.667 581,421.5C 598.817,387.902 593.983,358.068 566.5,332C 541.76,313.994 515.76,311.994 488.5,326C 461.429,344.641 450.763,370.141 456.5,402.5C 455.167,403.5 453.833,404.5 452.5,405.5C 445.889,380.612 450.389,357.946 466,337.5C 494.732,308.468 527.232,303.468 563.5,322.5 Z"/></g>
<g><path style="opacity:1" fill="#275887" d="M 527.5,342.5 C 529.23,343.026 530.564,344.026 531.5,345.5C 527.987,349.903 526.82,354.903 528,360.5C 530.412,364.074 533.245,367.074 536.5,369.5C 535.737,371.368 534.737,373.035 533.5,374.5C 519.073,366.131 517.073,355.464 527.5,342.5 Z"/></g>
<g><path style="opacity:1" fill="#b4b5b2" d="M 557.5,340.5 C 561.909,343.367 565.909,346.701 569.5,350.5C 569.023,353.025 567.69,355.025 565.5,356.5C 563.833,355.167 562.167,353.833 560.5,352.5C 557.688,349.599 554.688,346.932 551.5,344.5C 553.5,343.167 555.5,341.833 557.5,340.5 Z"/></g>
<g><path style="opacity:1" fill="#2c6396" d="M 527.5,342.5 C 517.073,355.464 519.073,366.131 533.5,374.5C 531.518,377.81 529.185,380.81 526.5,383.5C 524.629,383.141 523.129,382.141 522,380.5C 516,373.167 510,365.833 504,358.5C 500.328,361.342 496.828,364.342 493.5,367.5C 498.167,373.167 502.833,378.833 507.5,384.5C 496.976,384.971 486.476,384.304 476,382.5C 473.958,384.043 471.792,385.376 469.5,386.5C 472.745,359.755 487.579,343.755 514,338.5C 518.935,338.776 523.435,340.11 527.5,342.5 Z"/></g>
<g><path style="opacity:1" fill="#346798" d="M 551.5,344.5 C 554.688,346.932 557.688,349.599 560.5,352.5C 559.875,355.737 558.208,358.404 555.5,360.5C 552.729,363.548 549.396,365.548 545.5,366.5C 547.121,355.46 543.788,346.294 535.5,339C 541.062,339.937 546.395,341.77 551.5,344.5 Z"/></g>
<g><path style="opacity:1" fill="#376a9a" d="M 531.5,345.5 C 538.53,352.433 540.197,360.433 536.5,369.5C 533.245,367.074 530.412,364.074 528,360.5C 526.82,354.903 527.987,349.903 531.5,345.5 Z"/></g>
<g><path style="opacity:1" fill="#275988" d="M 560.5,352.5 C 562.167,353.833 563.833,355.167 565.5,356.5C 565.5,356.833 565.5,357.167 565.5,357.5C 559.704,364.281 552.704,369.614 544.5,373.5C 543.893,373.376 543.56,373.043 543.5,372.5C 544.167,370.5 544.833,368.5 545.5,366.5C 549.396,365.548 552.729,363.548 555.5,360.5C 558.208,358.404 559.875,355.737 560.5,352.5 Z"/></g>
<g><path style="opacity:1" fill="#2b6296" d="M 567.5,360.5 C 582.78,385.616 580.447,409.116 560.5,431C 543.823,431.833 527.157,431.666 510.5,430.5C 507.365,422.131 508.198,414.131 513,406.5C 522.729,396.938 532.229,387.272 541.5,377.5C 545.797,376.854 549.797,375.354 553.5,373C 558.335,368.997 563.002,364.83 567.5,360.5 Z"/></g>
<g><path style="opacity:1" fill="#275887" d="M 522.5,386.5 C 519.192,389.471 515.859,392.471 512.5,395.5C 501.489,394.398 490.489,393.565 479.5,393C 484.881,399.593 490.381,406.093 496,412.5C 496.365,415.494 495.031,417.494 492,418.5C 484.334,410.333 476.834,402 469.5,393.5C 469.5,392.833 469.5,392.167 469.5,391.5C 471.296,390.207 472.963,388.707 474.5,387C 486.692,387.135 498.859,387.969 511,389.5C 512.5,389.167 514,388.833 515.5,388.5C 509.645,381.813 503.978,374.979 498.5,368C 500.017,366.315 501.684,364.815 503.5,363.5C 510.08,371.013 516.413,378.68 522.5,386.5 Z"/></g>
<g><path style="opacity:1" fill="#396b9a" d="M 565.5,357.5 C 566.401,358.29 567.068,359.29 567.5,360.5C 563.002,364.83 558.335,368.997 553.5,373C 549.797,375.354 545.797,376.854 541.5,377.5C 541.402,375.447 542.069,373.78 543.5,372.5C 543.56,373.043 543.893,373.376 544.5,373.5C 552.704,369.614 559.704,364.281 565.5,357.5 Z"/></g>
<g><path style="opacity:1" fill="#386b9b" d="M 526.5,383.5 C 525.564,384.974 524.23,385.974 522.5,386.5C 516.413,378.68 510.08,371.013 503.5,363.5C 501.684,364.815 500.017,366.315 498.5,368C 503.978,374.979 509.645,381.813 515.5,388.5C 514,388.833 512.5,389.167 511,389.5C 498.859,387.969 486.692,387.135 474.5,387C 472.963,388.707 471.296,390.207 469.5,391.5C 469.5,389.833 469.5,388.167 469.5,386.5C 471.792,385.376 473.958,384.043 476,382.5C 486.476,384.304 496.976,384.971 507.5,384.5C 502.833,378.833 498.167,373.167 493.5,367.5C 496.828,364.342 500.328,361.342 504,358.5C 510,365.833 516,373.167 522,380.5C 523.129,382.141 524.629,383.141 526.5,383.5 Z"/></g>
<g><path style="opacity:1" fill="#2a6296" d="M 469.5,398.5 C 476.635,406.475 483.635,414.641 490.5,423C 491.167,423.667 491.833,423.667 492.5,423C 495.331,420.999 497.997,418.833 500.5,416.5C 500.372,420.881 500.705,425.215 501.5,429.5C 496.695,430.487 491.695,430.821 486.5,430.5C 477.081,421.974 471.414,411.307 469.5,398.5 Z"/></g>
<g><path style="opacity:1" fill="#aeb1af" d="M 456.5,402.5 C 459.145,408.462 461.812,414.462 464.5,420.5C 461.118,417.433 457.952,414.099 455,410.5C 454.601,410.728 454.435,411.062 454.5,411.5C 453.542,409.698 452.875,407.698 452.5,405.5C 453.833,404.5 455.167,403.5 456.5,402.5 Z"/></g>
<g><path style="opacity:1" fill="#35699a" d="M 512.5,395.5 C 506.704,401.419 502.704,408.419 500.5,416.5C 497.997,418.833 495.331,420.999 492.5,423C 491.833,423.667 491.167,423.667 490.5,423C 483.635,414.641 476.635,406.475 469.5,398.5C 469.5,396.833 469.5,395.167 469.5,393.5C 476.834,402 484.334,410.333 492,418.5C 495.031,417.494 496.365,415.494 496,412.5C 490.381,406.093 484.881,399.593 479.5,393C 490.489,393.565 501.489,394.398 512.5,395.5 Z"/></g>
<g><path style="opacity:1" fill="#b5b5b1" d="M 445.5,422.5 C 450.332,430.15 455.665,437.483 461.5,444.5C 460.594,445.965 459.261,446.965 457.5,447.5C 454.051,444.096 450.718,440.596 447.5,437C 446.833,436.333 446.167,436.333 445.5,437C 438.029,442.637 431.029,448.804 424.5,455.5C 426.771,459.274 429.604,462.607 433,465.5C 433.09,468.462 431.757,470.796 429,472.5C 426.585,469.986 424.419,467.319 422.5,464.5C 424.604,464.799 426.604,464.466 428.5,463.5C 428.167,463.167 427.833,462.833 427.5,462.5C 423.683,461.611 420.016,460.611 416.5,459.5C 416.938,459.565 417.272,459.399 417.5,459C 413.06,454.604 409.56,449.77 407,444.5C 408.351,442.981 409.851,441.648 411.5,440.5C 414.048,443.759 416.714,446.926 419.5,450C 420.908,450.315 422.241,449.982 423.5,449C 429.873,442.958 436.54,437.292 443.5,432C 440.117,428.326 437.284,424.492 435,420.5C 436.586,419.624 438.086,418.624 439.5,417.5C 441.519,419.19 443.519,420.856 445.5,422.5 Z"/></g>
<g><path style="opacity:1" fill="#b1b3b0" d="M 465.5,413.5 C 470.42,417.59 474.92,422.257 479,427.5C 479.279,429.412 478.446,430.746 476.5,431.5C 471.799,426.091 468.132,420.091 465.5,413.5 Z"/></g>
<g><path style="opacity:1" fill="#547da2" d="M 501.5,429.5 C 502.043,429.56 502.376,429.893 502.5,430.5C 497.014,431.815 491.68,431.815 486.5,430.5C 491.695,430.821 496.695,430.487 501.5,429.5 Z"/></g>
<g><path style="opacity:1" fill="#527ca2" d="M 565.5,438.5 C 537.338,437.502 509.005,437.169 480.5,437.5C 508.124,436.341 537.124,436.174 567.5,437C 566.956,437.717 566.289,438.217 565.5,438.5 Z"/></g>
<g><path style="opacity:1" fill="#2b6296" d="M 480.5,437.5 C 509.005,437.169 537.338,437.502 565.5,438.5C 541.047,456.151 515.38,457.985 488.5,444C 485.58,442.054 482.913,439.887 480.5,437.5 Z"/></g>
<g><path style="opacity:1" fill="#275988" d="M 390.5,464.5 C 390.167,464.5 389.833,464.5 389.5,464.5C 387.167,464.5 384.833,464.5 382.5,464.5C 385.632,461.428 389.299,459.094 393.5,457.5C 395.397,457.728 396.73,458.728 397.5,460.5C 395.096,461.843 392.762,463.177 390.5,464.5 Z"/></g>
<g><path style="opacity:1" fill="#b6b6b1" d="M 381.5,464.5 C 381.833,464.5 382.167,464.5 382.5,464.5C 384.833,464.5 387.167,464.5 389.5,464.5C 385.268,467.222 381.435,470.555 378,474.5C 377.257,476.441 377.424,478.274 378.5,480C 381.947,480.192 385.28,479.525 388.5,478C 393.677,474.722 399.177,472.222 405,470.5C 414.407,472.652 416.74,477.985 412,486.5C 405.845,493.989 398.345,499.656 389.5,503.5C 387.833,502.5 386.5,501.167 385.5,499.5C 393.882,496.291 401.049,491.291 407,484.5C 408.913,478.906 407.08,476.739 401.5,478C 395.288,481.273 388.954,484.273 382.5,487C 372.798,488.109 369.298,483.942 372,474.5C 374.696,470.639 377.863,467.306 381.5,464.5 Z"/></g>
<g><path style="opacity:1" fill="#b5b5b0" d="M 345.5,495.5 C 357.883,500.296 370.217,505.296 382.5,510.5C 381.109,512.89 379.109,514.557 376.5,515.5C 373.656,513.897 370.656,513.397 367.5,514C 362.333,518.5 357.167,523 352,527.5C 352.003,529.856 352.503,532.189 353.5,534.5C 351.957,537.39 349.624,539.057 346.5,539.5C 344.277,526.886 341.611,514.386 338.5,502C 340.729,499.6 343.063,497.433 345.5,495.5 Z"/></g>
<g><path style="opacity:1" fill="#c9c9c3" d="M 345.5,502.5 C 352.218,504.362 358.551,507.029 364.5,510.5C 360.514,515.509 355.514,518.842 349.5,520.5C 347.852,514.575 346.519,508.575 345.5,502.5 Z"/></g>
<g><path style="opacity:1" fill="#b5b5af" d="M 315.5,520.5 C 323.489,529.162 331.156,538.162 338.5,547.5C 337.166,549.995 335.166,551.162 332.5,551C 327.69,544.556 322.524,538.389 317,532.5C 315.701,533.09 314.868,534.09 314.5,535.5C 316.271,544.412 318.271,553.245 320.5,562C 318.729,564.487 316.562,566.654 314,568.5C 305.143,564.935 296.31,561.269 287.5,557.5C 285.717,558.348 285.217,559.681 286,561.5C 290.951,567.233 295.784,573.067 300.5,579C 299.644,581.354 297.977,582.854 295.5,583.5C 288.053,574.781 280.72,565.947 273.5,557C 276.042,553.959 279.042,551.459 282.5,549.5C 293.057,553.74 303.557,558.073 314,562.5C 312.487,551.269 310.321,540.102 307.5,529C 309.941,525.948 312.607,523.115 315.5,520.5 Z"/></g>
<g><path style="opacity:1" fill="#b4b4af" d="M 259.5,568.5 C 261.729,569.055 263.395,570.389 264.5,572.5C 256.803,575.029 250.303,579.363 245,585.5C 242.553,588.993 243.387,591.326 247.5,592.5C 253.914,590.459 259.914,587.625 265.5,584C 273.605,580.391 278.938,582.724 281.5,591C 279.771,596.452 276.771,601.119 272.5,605C 267.592,608.951 262.258,612.118 256.5,614.5C 254.603,614.272 253.27,613.272 252.5,611.5C 260.562,608.6 267.395,603.934 273,597.5C 276.27,590.433 274.103,587.933 266.5,590C 260.383,594.228 253.716,597.061 246.5,598.5C 241.256,598.76 238.256,596.26 237.5,591C 238.413,587.008 240.246,583.508 243,580.5C 248.302,576.112 253.802,572.112 259.5,568.5 Z"/></g>
<g><path style="opacity:1" fill="#bfbfb9" d="M 218.5,602.5 C 233.617,601.121 241.951,607.954 243.5,623C 241.946,630.888 237.279,635.888 229.5,638C 224.98,638.928 220.646,638.595 216.5,637C 218.991,636.741 221.491,636.907 224,637.5C 226.253,637.369 228.419,636.869 230.5,636C 232.678,634.198 234.511,632.031 236,629.5C 241.25,614.086 235.75,606.586 219.5,607C 216.438,608.061 213.938,609.894 212,612.5C 211.333,611.167 210.667,611.167 210,612.5C 205.689,621.19 207.189,628.69 214.5,635C 212.613,635.163 211.113,634.329 210,632.5C 204.159,622.402 205.659,613.569 214.5,606C 214.167,605.667 213.833,605.333 213.5,605C 215.315,604.243 216.981,603.41 218.5,602.5 Z"/></g>
<g><path style="opacity:1" fill="#c5c5bf" d="M 958.5,767.5 C 958.5,768.5 958.5,769.5 958.5,770.5C 638.833,770.5 319.167,770.5 -0.5,770.5C -0.5,767.833 -0.5,765.167 -0.5,762.5C 115.145,761.341 230.812,761.175 346.5,762C 346.167,762.333 345.833,762.667 345.5,763C 384.5,763.333 423.5,763.667 462.5,764C 461.167,764.333 459.833,764.667 458.5,765C 460.101,765.273 461.601,765.773 463,766.5C 504.472,766.557 546.139,766.223 588,765.5C 711.429,766.831 834.929,767.498 958.5,767.5 Z"/></g>
</svg>
