<?xml version="1.0" standalone="no"?>
<!DOCTYPE svg PUBLIC "-//W3C//DTD SVG 20010904//EN"
 "http://www.w3.org/TR/2001/REC-SVG-20010904/DTD/svg10.dtd">
<svg version="1.0" xmlns="http://www.w3.org/2000/svg"
 width="959.000000pt" height="771.000000pt" viewBox="0 0 959.000000 771.000000"
 preserveAspectRatio="xMidYMid meet">

<g transform="translate(0.000000,771.000000) scale(0.100000,-0.100000)"
fill="#000000" stroke="none">
<path d="M5075 4674 c-262 -58 -504 -246 -614 -477 -62 -129 -76 -199 -75
-362 1 -124 4 -149 29 -225 34 -105 59 -155 124 -247 71 -101 183 -194 307
-254 483 -237 1059 17 1220 536 27 86 27 334 0 420 -55 179 -151 321 -294 436
-80 65 -223 138 -317 164 -87 24 -292 29 -380 9z m402 -121 c118 -43 187 -87
283 -183 145 -144 214 -309 214 -515 0 -209 -68 -370 -219 -520 -104 -105
-203 -161 -344 -196 -120 -30 -292 -24 -406 15 -115 39 -209 98 -295 185 -87
89 -140 173 -177 286 -25 73 -27 94 -27 230 0 135 2 158 26 228 82 244 270
419 523 488 57 16 95 18 205 15 119 -3 145 -7 217 -33z"/>
<path d="M5130 4530 c-272 -43 -501 -261 -559 -532 -23 -104 -13 -275 21 -363
41 -107 128 -245 155 -245 18 0 16 7 -11 43 -134 175 -152 444 -44 650 48 92
173 213 269 260 285 140 624 46 797 -222 61 -94 83 -168 89 -296 7 -154 -25
-272 -103 -382 -42 -60 -24 -72 23 -17 42 49 117 201 134 274 8 31 13 103 13
165 -1 88 -6 125 -26 187 -39 118 -92 204 -178 290 -63 62 -96 85 -171 121
-52 25 -115 50 -140 56 -67 15 -205 21 -269 11z"/>
<path d="M5094 4309 c-73 -9 -169 -64 -239 -135 -106 -107 -156 -230 -156
-384 0 -132 47 -257 131 -352 l42 -48 78 0 78 0 -10 38 c-29 104 20 230 131
333 36 34 88 83 115 108 98 92 136 179 116 268 -28 129 -134 193 -286 172z"/>
<path d="M5386 4289 c57 -61 69 -95 69 -194 0 -136 -27 -177 -243 -376 -85
-78 -122 -146 -122 -226 0 -29 5 -64 12 -78 l11 -25 246 0 246 0 43 52 c88
105 127 214 126 348 -2 169 -65 309 -186 415 -41 35 -153 95 -208 110 -24 7
-24 7 6 -26z"/>
<path d="M4830 3309 c47 -40 160 -95 240 -116 80 -21 244 -23 320 -4 96 24
279 118 280 144 0 4 -197 7 -437 7 l-438 -1 35 -30z"/>
<path d="M3131 4020 c-134 -347 -262 -668 -285 -713 -51 -104 -133 -190 -197
-207 -24 -7 -50 -14 -56 -16 -7 -2 -13 -8 -13 -14 0 -7 88 -10 261 -10 201 0
260 3 257 12 -3 7 -18 15 -34 19 -95 19 -146 81 -145 178 0 60 14 107 89 301
l48 125 260 3 260 2 79 -195 c84 -211 98 -272 71 -323 -26 -50 -71 -75 -178
-97 -16 -3 -28 -10 -28 -15 0 -6 140 -10 385 -10 231 0 385 4 385 9 0 11 -16
16 -75 26 -64 10 -123 51 -158 108 -47 76 -62 110 -351 807 l-262 635 -35 3
-34 2 -244 -630z m303 30 c64 -157 116 -288 116 -292 0 -5 -106 -8 -236 -8
-149 0 -234 4 -232 10 43 128 225 587 230 582 4 -4 59 -135 122 -292z"/>
<path d="M6270 4640 c0 -5 12 -12 28 -15 106 -22 148 -49 185 -119 22 -41 22
-45 25 -615 2 -389 -1 -591 -8 -627 -20 -97 -73 -150 -167 -169 -31 -6 -59
-17 -61 -23 -3 -9 86 -12 367 -12 236 0 371 4 371 10 0 5 -12 12 -27 15 -156
32 -197 77 -214 234 -11 113 -11 961 1 1074 12 116 39 165 112 201 28 14 62
26 74 26 29 0 54 10 54 21 0 5 -160 9 -370 9 -235 0 -370 -4 -370 -10z"/>
</g>
</svg>
